HIERARCHY
ROOT Hips
{
	OFFSET	0.00	0.00	0.00
	CHANNELS 6 Xposition Yposition Zposition Zrotation Xrotation Yrotation
	JOINT LeftUpperLeg
	{
		OFFSET	 0.100000	-0.066564	-0.000554
		CHANNELS 3 Zrotation Xrotation Yrotation
		JOINT LeftLowerLeg
		{
			OFFSET	 0.002447	-0.463436	-0.005172
			CHANNELS 3 Zrotation Xrotation Yrotation
			JOINT LeftFoot
			{
				OFFSET	-0.002447	-0.420480	-0.020576
				CHANNELS 3 Zrotation Xrotation Yrotation
				JOINT LeftToes
				{
					OFFSET	 0.003734	-0.104922	 0.126407
					CHANNELS 3 Zrotation Xrotation Yrotation
					End Site
					{
						OFFSET	 0.000000	 0.000000	 0.059955
					}
				}
			}
		}
	}
	JOINT RightUpperLeg
	{
		OFFSET	-0.100000	-0.066564	-0.000554
		CHANNELS 3 Zrotation Xrotation Yrotation
		JOINT RightLowerLeg
		{
			OFFSET	-0.002447	-0.463436	-0.005146
			CHANNELS 3 Zrotation Xrotation Yrotation
			JOINT RightFoot
			{
				OFFSET	 0.002447	-0.420479	-0.020602
				CHANNELS 3 Zrotation Xrotation Yrotation
				JOINT RightToes
				{
					OFFSET	-0.003734	-0.104922	 0.126407
					CHANNELS 3 Zrotation Xrotation Yrotation
					End Site
					{
						OFFSET	-0.000000	 0.000000	 0.059955
					}
				}
			}
		}
	}
	JOINT Spine
	{
		OFFSET	 0.000000	 0.099235	-0.012273
		CHANNELS 3 Zrotation Xrotation Yrotation
		JOINT Chest
		{
			OFFSET	-0.000001	 0.116455	-0.014223
			CHANNELS 3 Zrotation Xrotation Yrotation
			JOINT UpperChest
			{
				OFFSET	 0.000001	 0.133602	-0.016265
				CHANNELS 3 Zrotation Xrotation Yrotation
				JOINT LeftShoulder
				{
					OFFSET	 0.061058	 0.091105	 0.007056
					CHANNELS 3 Zrotation Xrotation Yrotation
					JOINT LeftUpperArm
					{
						OFFSET	 0.133942	-0.002659	-0.026009
						CHANNELS 3 Zrotation Xrotation Yrotation
						JOINT LeftLowerArm
						{
							OFFSET	 0.274047	 0.000000	 0.000000
							CHANNELS 3 Zrotation Xrotation Yrotation
							JOINT LeftHand
							{
								OFFSET	 0.276145	 0.000000	 0.000000
								CHANNELS 3 Zrotation Xrotation Yrotation
								End Site
								{
									OFFSET	 0.165687	 0.000000	 0.000000
								}
							}
						}
					}
				}
				JOINT Neck
				{
					OFFSET	 0.000000	 0.150325	 0.007929
					CHANNELS 3 Zrotation Xrotation Yrotation
					JOINT Head
					{
						OFFSET	 0.000000	 0.103218	 0.031424
						CHANNELS 3 Zrotation Xrotation Yrotation
						End Site
						{
							OFFSET	 0.000000	 0.061931	 0.018855
						}
					}
				}
				JOINT RightShoulder
				{
					OFFSET	-0.061057	 0.091105	 0.007056
					CHANNELS 3 Zrotation Xrotation Yrotation
					JOINT RightUpperArm
					{
						OFFSET	-0.133943	-0.002660	-0.026009
						CHANNELS 3 Zrotation Xrotation Yrotation
						JOINT RightLowerArm
						{
							OFFSET	-0.274047	 0.000000	 0.000000
							CHANNELS 3 Zrotation Xrotation Yrotation
							JOINT RightHand
							{
								OFFSET	-0.276145	 0.000000	 0.000000
								CHANNELS 3 Zrotation Xrotation Yrotation
								End Site
								{
									OFFSET	-0.165687	 0.000000	 0.000000
								}
							}
						}
					}
				}
			}
		}
	}
}
MOTION
Frames:    8
Frame Time: 0.03333334
-0.453480	 1.050230	-0.942140	 0.047709	 5.557772	-27.817140	 4.965918	 9.833675	 21.836240	-0.001457	 0.092378	 0.000696	-7.491833	-9.288683	 9.065715	-0.000398	 0.378278	 0.153066	 2.130783	 4.013370	-5.436832	-0.000876	 0.074389	 0.000442	 1.964289	-8.806926	-5.501628	 0.000341	 0.356870	 0.107630	 0.204972	 0.429922	-3.961384	-0.000000	 0.000000	 0.000000	 0.439922	 0.847959	-7.941308	 3.707691	 3.069556	 18.413430	-77.413990	 24.711210	-31.127600	-1.335932	 25.656990	-35.769600	 58.412130	 41.930260	-48.000360	 2.355208	 19.044660	 36.067300	 2.324269	 18.985190	 36.000290	 4.129981	 4.446925	-23.573410	 80.855450	 13.154520	 22.434280	-0.500842	 15.716670	 33.356560	-61.973320	 12.416010	 33.891930
-0.453530	 1.050250	-0.942380	 0.123880	 5.675311	-27.860190	 4.954765	 9.691782	 21.800780	-0.001676	 0.083396	-0.000337	-7.511380	-9.266116	 9.165784	-0.000251	 0.378219	 0.149911	 2.122462	 3.863955	-5.220120	-0.001603	 0.080040	 0.000438	 1.887102	-8.854585	-5.618632	-0.000135	 0.356519	 0.100334	 0.220242	 0.441329	-3.853941	-0.000000	 0.000000	 0.000000	 0.469036	 0.867952	-7.726413	 3.899768	 3.521934	 18.161150	-78.037780	 23.034920	-30.635300	-2.750695	 25.905940	-37.971740	 61.329830	 39.983580	-49.715870	 2.672315	 19.048340	 35.904960	 2.718584	 19.035970	 35.789780	 4.121745	 4.624397	-23.709630	 80.672300	 13.069980	 22.606100	-0.405606	 15.654190	 33.715650	-62.037260	 12.461260	 33.688400
-0.453530	 1.050250	-0.942380	 0.123880	 5.675311	-27.860190	 4.954765	 9.691782	 21.800780	-0.001676	 0.083396	-0.000337	-7.511380	-9.266116	 9.165784	-0.000251	 0.378219	 0.149911	 2.122462	 3.863955	-5.220120	-0.001603	 0.080040	 0.000438	 1.887102	-8.854585	-5.618632	-0.000135	 0.356519	 0.100334	 0.220242	 0.441329	-3.853941	-0.000000	 0.000000	 0.000000	 0.469036	 0.867952	-7.726413	 3.899768	 3.521934	 18.161150	-78.037780	 23.034920	-30.635300	-2.750695	 25.905940	-37.971740	 61.329830	 39.983580	-49.715870	 2.672315	 19.048340	 35.904960	 2.718584	 19.035970	 35.789780	 4.121745	 4.624397	-23.709630	 80.672300	 13.069980	 22.606100	-0.405606	 15.654190	 33.715650	-62.037260	 12.461260	 33.688400
-0.453690	 1.050220	-0.942310	 0.072707	 5.681172	-27.681510	 5.038864	 9.687775	 21.672710	-0.000798	 0.082635	-0.000199	-7.544109	-9.234938	 9.135303	 0.000724	 0.377364	 0.145975	 2.193170	 3.897103	-5.337370	-0.001563	 0.080042	 0.000427	 1.789158	-8.821991	-5.675214	-0.001099	 0.356880	 0.087240	 0.235323	 0.464174	-3.845434	-0.000000	 0.000000	 0.000000	 0.505330	 0.912431	-7.709615	 3.993666	 3.465529	 18.237710	-78.305420	 22.567800	-30.395570	-2.442160	 26.063120	-39.918340	 62.376990	 38.198770	-50.857600	 2.958022	 19.392320	 35.654560	 2.933359	 19.343180	 35.638920	 4.149590	 4.693403	-23.781120	 80.783040	 12.948280	 22.396920	-0.506457	 15.589590	 33.879180	-61.991940	 12.439780	 33.664230
-0.453700	 1.050190	-0.942150	 0.031667	 5.708660	-27.552300	 5.104835	 9.668344	 21.533070	-0.000864	 0.084090	-0.001074	-7.558698	-9.231550	 9.165075	 0.000067	 0.378133	 0.143560	 2.251767	 3.900018	-5.489134	-0.001720	 0.089303	-0.000495	 1.718226	-8.825270	-5.653360	 0.000002	 0.356288	 0.074681	 0.276860	 0.457546	-3.852842	-0.000000	 0.000000	 0.000000	 0.584196	 0.896929	-7.723199	 4.016910	 3.348813	 18.268030	-78.585140	 21.992050	-30.771350	-2.679000	 26.788470	-40.089190	 63.749990	 36.749180	-52.053680	 3.132205	 19.679070	 35.572640	 3.047138	 19.684500	 35.584720	 4.135818	 4.687253	-23.812730	 81.054220	 12.809680	 22.143520	-0.769047	 15.716610	 34.061150	-61.960620	 12.499730	 33.580530
-0.453590	 1.050200	-0.942050	-0.014244	 5.687859	-27.348840	 5.163587	 9.675775	 21.347220	-0.001641	 0.083394	-0.000335	-7.595976	-9.218580	 9.150638	 0.000368	 0.378032	 0.135614	 2.288088	 3.958919	-5.629659	-0.001487	 0.079969	-0.000105	 1.702567	-8.869901	-5.707448	 0.000061	 0.356267	 0.072650	 0.299911	 0.486658	-3.899951	-0.000000	 0.000000	 0.000000	 0.636022	 0.953254	-7.817286	 4.034451	 3.256824	 18.216780	-78.805200	 21.833910	-31.160310	-2.999991	 26.759060	-39.588760	 64.686250	 34.599650	-52.920020	 3.122067	 19.894320	 35.520690	 3.044157	 19.836350	 35.623840	 4.073455	 4.756180	-23.854920	 81.326070	 12.610520	 21.934860	-0.939013	 15.899720	 34.200530	-61.972800	 12.518600	 33.369150
-0.453420	 1.050210	-0.941980	 0.030062	 5.672341	-27.246970	 5.122164	 9.647390	 21.292890	 0.000028	 0.083330	-0.000907	-7.608340	-9.199243	 9.114191	-0.000317	 0.378014	 0.133221	 2.234520	 3.951910	-5.820816	-0.000266	 0.089709	 0.000656	 1.761311	-8.864805	-5.623139	 0.000001	 0.356298	 0.076691	 0.281993	 0.484499	-3.923659	-0.000000	 0.000000	 0.000000	 0.598379	 0.948879	-7.867711	 3.949219	 3.127244	 18.257010	-79.049710	 21.799220	-31.556880	-2.977901	 26.812270	-38.514310	 64.246050	 33.536240	-52.486130	 2.982711	 19.884540	 35.624510	 3.001564	 19.897440	 35.678050	 3.982548	 4.690571	-23.750400	 81.330850	 12.534000	 21.901560	-0.879583	 15.894360	 34.207760	-61.945760	 12.556220	 33.322210
-0.453320	 1.050250	-0.941730	 0.040093	 5.662505	-27.116390	 5.117302	 9.638822	 21.159400	-0.001329	 0.078433	-0.000715	-7.619947	-9.178075	 9.132722	 0.000692	 0.378725	 0.129241	 2.221226	 3.979889	-6.156893	-0.000350	 0.075396	 0.000504	 1.769909	-8.863112	-5.425010	-0.000260	 0.357018	 0.071405	 0.274235	 0.446781	-3.935005	-0.000000	 0.000000	 0.000000	 0.578414	 0.876994	-7.887783	 3.891344	 3.109964	 18.166980	-79.226000	 22.062690	-32.012080	-2.477850	 25.976130	-37.178810	 60.035510	 35.695470	-49.370940	 2.932192	 19.792530	 35.774430	 2.936417	 19.866730	 35.790600	 3.993103	 4.668936	-23.753620	 81.333350	 12.488520	 21.874450	-0.789683	 15.910660	 34.105730	-61.872010	 12.633310	 33.240360
